<?xml version="1.0" encoding="UTF-8" standalone="no"?>
<!-- Created with Inkscape (http://www.inkscape.org/) -->

<svg
   xmlns:dc="http://purl.org/dc/elements/1.1/"
   xmlns:cc="http://creativecommons.org/ns#"
   xmlns:rdf="http://www.w3.org/1999/02/22-rdf-syntax-ns#"
   xmlns:svg="http://www.w3.org/2000/svg"
   xmlns="http://www.w3.org/2000/svg"
   xmlns:sodipodi="http://sodipodi.sourceforge.net/DTD/sodipodi-0.dtd"
   xmlns:inkscape="http://www.inkscape.org/namespaces/inkscape"
   width="210mm"
   height="297mm"
   viewBox="0 0 210 297"
   version="1.1"
   id="svg8"
   inkscape:version="0.92.3 (2405546, 2018-03-11)"
   sodipodi:docname="optical_digram.svg">
  <defs
     id="defs2">
    <marker
       inkscape:isstock="true"
       style="overflow:visible"
       id="marker6113"
       refX="0.0"
       refY="0.0"
       orient="auto"
       inkscape:stockid="EmptyTriangleInL">
      <path
         transform="scale(-0.8) translate(-6,0)"
         style="fill-rule:evenodd;fill:#ffffff;stroke:#002400;stroke-width:1pt;stroke-opacity:1"
         d="M 5.77,0.0 L -2.88,5.0 L -2.88,-5.0 L 5.77,0.0 z "
         id="path6111" />
    </marker>
    <marker
       inkscape:isstock="true"
       style="overflow:visible"
       id="marker6109"
       refX="0.0"
       refY="0.0"
       orient="auto"
       inkscape:stockid="EmptyTriangleOutL">
      <path
         transform="scale(0.8) translate(-6,0)"
         style="fill-rule:evenodd;fill:#ffffff;stroke:#002400;stroke-width:1pt;stroke-opacity:1"
         d="M 5.77,0.0 L -2.88,5.0 L -2.88,-5.0 L 5.77,0.0 z "
         id="path6107" />
    </marker>
    <marker
       inkscape:isstock="true"
       style="overflow:visible"
       id="marker2713"
       refX="0.0"
       refY="0.0"
       orient="auto"
       inkscape:stockid="StopL">
      <path
         transform="scale(0.8)"
         style="fill:none;fill-opacity:0.75;fill-rule:evenodd;stroke:#000000;stroke-width:1pt;stroke-opacity:1"
         d="M 0.0,5.65 L 0.0,-5.65"
         id="path2711" />
    </marker>
    <marker
       inkscape:isstock="true"
       style="overflow:visible"
       id="marker2709"
       refX="0.0"
       refY="0.0"
       orient="auto"
       inkscape:stockid="StopL">
      <path
         transform="scale(0.8)"
         style="fill:none;fill-opacity:0.75;fill-rule:evenodd;stroke:#000000;stroke-width:1pt;stroke-opacity:1"
         d="M 0.0,5.65 L 0.0,-5.65"
         id="path2707" />
    </marker>
    <marker
       inkscape:stockid="SemiCircleIn"
       orient="auto"
       refY="0.0"
       refX="0.0"
       id="marker2505"
       style="overflow:visible"
       inkscape:isstock="true">
      <path
         id="path2503"
         d="M -0.37450702,-0.045692580 C -0.37450702,2.7143074 1.8654930,4.9543074 4.6254930,4.9543074 L 4.6254930,-5.0456926 C 1.8654930,-5.0456926 -0.37450702,-2.8056926 -0.37450702,-0.045692580 z "
         style="fill-rule:evenodd;stroke:#0000ff;stroke-width:1pt;stroke-opacity:1;fill:#0000ff;fill-opacity:1"
         transform="scale(0.6)" />
    </marker>
    <marker
       inkscape:isstock="true"
       style="overflow:visible"
       id="marker2003"
       refX="0.0"
       refY="0.0"
       orient="auto"
       inkscape:stockid="SemiCircleIn">
      <path
         transform="scale(0.6)"
         style="fill-rule:evenodd;stroke:#9696ff;stroke-width:1pt;stroke-opacity:1;fill:#9696ff;fill-opacity:1"
         d="M -0.37450702,-0.045692580 C -0.37450702,2.7143074 1.8654930,4.9543074 4.6254930,4.9543074 L 4.6254930,-5.0456926 C 1.8654930,-5.0456926 -0.37450702,-2.8056926 -0.37450702,-0.045692580 z "
         id="path2001" />
    </marker>
    <marker
       inkscape:stockid="SemiCircleIn"
       orient="auto"
       refY="0.0"
       refX="0.0"
       id="marker1667"
       style="overflow:visible"
       inkscape:isstock="true">
      <path
         id="path1665"
         d="M -0.37450702,-0.045692580 C -0.37450702,2.7143074 1.8654930,4.9543074 4.6254930,4.9543074 L 4.6254930,-5.0456926 C 1.8654930,-5.0456926 -0.37450702,-2.8056926 -0.37450702,-0.045692580 z "
         style="fill-rule:evenodd;stroke:#6464ff;stroke-width:1pt;stroke-opacity:1;fill:#6464ff;fill-opacity:1"
         transform="scale(0.6)" />
    </marker>
    <marker
       inkscape:isstock="true"
       style="overflow:visible"
       id="marker1331"
       refX="0.0"
       refY="0.0"
       orient="auto"
       inkscape:stockid="SemiCircleIn">
      <path
         transform="scale(0.6)"
         style="fill-rule:evenodd;stroke:#0000ff;stroke-width:1pt;stroke-opacity:1;fill:#0000ff;fill-opacity:1"
         d="M -0.37450702,-0.045692580 C -0.37450702,2.7143074 1.8654930,4.9543074 4.6254930,4.9543074 L 4.6254930,-5.0456926 C 1.8654930,-5.0456926 -0.37450702,-2.8056926 -0.37450702,-0.045692580 z "
         id="path1329" />
    </marker>
    <marker
       inkscape:stockid="EmptyTriangleInL"
       orient="auto"
       refY="0.0"
       refX="0.0"
       id="EmptyTriangleInL"
       style="overflow:visible"
       inkscape:isstock="true"
       inkscape:collect="always">
      <path
         id="path1048"
         d="M 5.77,0.0 L -2.88,5.0 L -2.88,-5.0 L 5.77,0.0 z "
         style="fill-rule:evenodd;fill:#ffffff;stroke:#002400;stroke-width:1pt;stroke-opacity:1"
         transform="scale(-0.8) translate(-6,0)" />
    </marker>
    <marker
       inkscape:stockid="EmptyTriangleOutL"
       orient="auto"
       refY="0.0"
       refX="0.0"
       id="EmptyTriangleOutL"
       style="overflow:visible"
       inkscape:isstock="true"
       inkscape:collect="always">
      <path
         id="path1057"
         d="M 5.77,0.0 L -2.88,5.0 L -2.88,-5.0 L 5.77,0.0 z "
         style="fill-rule:evenodd;fill:#ffffff;stroke:#002400;stroke-width:1pt;stroke-opacity:1"
         transform="scale(0.8) translate(-6,0)" />
    </marker>
    <marker
       inkscape:stockid="EmptyTriangleInM"
       orient="auto"
       refY="0.0"
       refX="0.0"
       id="EmptyTriangleInM"
       style="overflow:visible"
       inkscape:isstock="true">
      <path
         id="path1051"
         d="M 5.77,0.0 L -2.88,5.0 L -2.88,-5.0 L 5.77,0.0 z "
         style="fill-rule:evenodd;fill:#ffffff;stroke:#002400;stroke-width:1pt;stroke-opacity:1"
         transform="scale(-0.4) translate(-4.5,0)" />
    </marker>
    <marker
       inkscape:stockid="EmptyTriangleOutM"
       orient="auto"
       refY="0.0"
       refX="0.0"
       id="EmptyTriangleOutM"
       style="overflow:visible"
       inkscape:isstock="true">
      <path
         id="path1044"
         d="M 5.77,0.0 L -2.88,5.0 L -2.88,-5.0 L 5.77,0.0 z "
         style="fill-rule:evenodd;fill:#ffffff;stroke:#002400;stroke-width:1pt;stroke-opacity:1"
         transform="scale(0.4) translate(-4.5,0)" />
    </marker>
    <marker
       inkscape:isstock="true"
       style="overflow:visible"
       id="marker13164"
       refX="0.0"
       refY="0.0"
       orient="auto"
       inkscape:stockid="SemiCircleIn"
       inkscape:collect="always">
      <path
         transform="scale(0.6)"
         style="fill-rule:evenodd;stroke:#6464ff;stroke-width:1pt;stroke-opacity:1;fill:#6464ff;fill-opacity:1"
         d="M -0.37450702,-0.045692580 C -0.37450702,2.7143074 1.8654930,4.9543074 4.6254930,4.9543074 L 4.6254930,-5.0456926 C 1.8654930,-5.0456926 -0.37450702,-2.8056926 -0.37450702,-0.045692580 z "
         id="path13162" />
    </marker>
    <marker
       inkscape:stockid="SemiCircleIn"
       orient="auto"
       refY="0.0"
       refX="0.0"
       id="marker9340"
       style="overflow:visible"
       inkscape:isstock="true"
       inkscape:collect="always">
      <path
         id="path9338"
         d="M -0.37450702,-0.045692580 C -0.37450702,2.7143074 1.8654930,4.9543074 4.6254930,4.9543074 L 4.6254930,-5.0456926 C 1.8654930,-5.0456926 -0.37450702,-2.8056926 -0.37450702,-0.045692580 z "
         style="fill-rule:evenodd;stroke:#9696ff;stroke-width:1pt;stroke-opacity:1;fill:#9696ff;fill-opacity:1"
         transform="scale(0.6)" />
    </marker>
    <marker
       inkscape:isstock="true"
       style="overflow:visible"
       id="marker1530"
       refX="0.0"
       refY="0.0"
       orient="auto"
       inkscape:stockid="SemiCircleIn"
       inkscape:collect="always">
      <path
         transform="scale(0.6)"
         style="fill-rule:evenodd;stroke:#3f3fff;stroke-width:1pt;stroke-opacity:1;fill:#3f3fff;fill-opacity:1"
         d="M -0.37450702,-0.045692580 C -0.37450702,2.7143074 1.8654930,4.9543074 4.6254930,4.9543074 L 4.6254930,-5.0456926 C 1.8654930,-5.0456926 -0.37450702,-2.8056926 -0.37450702,-0.045692580 z "
         id="path1528" />
    </marker>
    <marker
       inkscape:stockid="StopL"
       orient="auto"
       refY="0.0"
       refX="0.0"
       id="StopL"
       style="overflow:visible"
       inkscape:isstock="true"
       inkscape:collect="always">
      <path
         id="path1143"
         d="M 0.0,5.65 L 0.0,-5.65"
         style="fill:none;fill-opacity:0.75;fill-rule:evenodd;stroke:#000000;stroke-width:1pt;stroke-opacity:1"
         transform="scale(0.8)" />
    </marker>
    <marker
       inkscape:stockid="SemiCircleOut"
       orient="auto"
       refY="0.0"
       refX="0.0"
       id="marker1429"
       style="overflow:visible"
       inkscape:isstock="true">
      <path
         id="path1427"
         d="M -2.5,-0.80913858 C -2.5,1.9508614 -4.7400000,4.1908614 -7.5,4.1908614 L -7.5,-5.8091386 C -4.7400000,-5.8091386 -2.5,-3.5691386 -2.5,-0.80913858 z "
         style="fill-rule:evenodd;stroke:#000000;stroke-width:1pt;stroke-opacity:1;fill:#000000;fill-opacity:1"
         transform="scale(0.6) translate(7.125493,0.763446)" />
    </marker>
    <marker
       inkscape:stockid="SemiCircleIn"
       orient="auto"
       refY="0.0"
       refX="0.0"
       id="marker1253"
       style="overflow:visible"
       inkscape:isstock="true">
      <path
         id="path1251"
         d="M -0.37450702,-0.045692580 C -0.37450702,2.7143074 1.8654930,4.9543074 4.6254930,4.9543074 L 4.6254930,-5.0456926 C 1.8654930,-5.0456926 -0.37450702,-2.8056926 -0.37450702,-0.045692580 z "
         style="fill-rule:evenodd;stroke:#000000;stroke-width:1pt;stroke-opacity:1;fill:#000000;fill-opacity:1"
         transform="scale(0.6)" />
    </marker>
    <marker
       inkscape:stockid="SemiCircleOut"
       orient="auto"
       refY="0.0"
       refX="0.0"
       id="SemiCircleOut"
       style="overflow:visible"
       inkscape:isstock="true">
      <path
         id="path1049"
         d="M -2.5,-0.80913858 C -2.5,1.9508614 -4.7400000,4.1908614 -7.5,4.1908614 L -7.5,-5.8091386 C -4.7400000,-5.8091386 -2.5,-3.5691386 -2.5,-0.80913858 z "
         style="fill-rule:evenodd;stroke:#000000;stroke-width:1pt;stroke-opacity:1;fill:#000000;fill-opacity:1"
         transform="scale(0.6) translate(7.125493,0.763446)" />
    </marker>
    <marker
       inkscape:stockid="SemiCircleIn"
       orient="auto"
       refY="0.0"
       refX="0.0"
       id="SemiCircleIn"
       style="overflow:visible"
       inkscape:isstock="true"
       inkscape:collect="always">
      <path
         id="path1046"
         d="M -0.37450702,-0.045692580 C -0.37450702,2.7143074 1.8654930,4.9543074 4.6254930,4.9543074 L 4.6254930,-5.0456926 C 1.8654930,-5.0456926 -0.37450702,-2.8056926 -0.37450702,-0.045692580 z "
         style="fill-rule:evenodd;stroke:#0000ff;stroke-width:1pt;stroke-opacity:1;fill:#0000ff;fill-opacity:1"
         transform="scale(0.6)" />
    </marker>
    <marker
       inkscape:stockid="Arrow2Mend"
       orient="auto"
       refY="0.0"
       refX="0.0"
       id="Arrow2Mend"
       style="overflow:visible;"
       inkscape:isstock="true">
      <path
         id="path895"
         style="fill-rule:evenodd;stroke-width:0.625;stroke-linejoin:round;stroke:#000000;stroke-opacity:1;fill:#000000;fill-opacity:1"
         d="M 8.7185878,4.0337352 L -2.2072895,0.016013256 L 8.7185884,-4.0017078 C 6.9730900,-1.6296469 6.9831476,1.6157441 8.7185878,4.0337352 z "
         transform="scale(0.6) rotate(180) translate(0,0)" />
    </marker>
    <marker
       inkscape:stockid="Arrow1Lstart"
       orient="auto"
       refY="0.0"
       refX="0.0"
       id="marker1923"
       style="overflow:visible"
       inkscape:isstock="true">
      <path
         id="path838"
         d="M 0.0,0.0 L 5.0,-5.0 L -12.5,0.0 L 5.0,5.0 L 0.0,0.0 z "
         style="fill-rule:evenodd;stroke:#000000;stroke-width:1pt;stroke-opacity:1;fill:#000000;fill-opacity:1"
         transform="scale(0.8) translate(12.5,0)" />
    </marker>
    <marker
       inkscape:stockid="Arrow2Mstart"
       orient="auto"
       refY="0.0"
       refX="0.0"
       id="Arrow2Mstart"
       style="overflow:visible"
       inkscape:isstock="true">
      <path
         id="path862"
         style="fill-rule:evenodd;stroke-width:0.625;stroke-linejoin:round;stroke:#000000;stroke-opacity:1;fill:#000000;fill-opacity:1"
         d="M 8.7185878,4.0337352 L -2.2072895,0.016013256 L 8.7185884,-4.0017078 C 6.9730900,-1.6296469 6.9831476,1.6157441 8.7185878,4.0337352 z "
         transform="scale(0.6) translate(0,0)" />
    </marker>
    <marker
       inkscape:stockid="Torso"
       orient="auto"
       refY="0.0"
       refX="0.0"
       id="marker1256"
       style="overflow:visible"
       inkscape:isstock="true">
      <g
         id="g1254"
         transform="scale(0.7)"
         style="stroke:#000000;stroke-opacity:1;fill:#000000;fill-opacity:1">
        <path
           id="path1240"
           d="M -4.7792281,-3.2395420 C -2.4288541,-2.8736027 0.52103922,-1.3019943 0.25792722,0.38794346 C -0.0051877922,2.0778819 -2.2126741,2.6176539 -4.5630471,2.2517169 C -6.9134221,1.8857769 -8.5210350,0.75201414 -8.2579220,-0.93792336 C -7.9948090,-2.6278615 -7.1296041,-3.6054813 -4.7792281,-3.2395420 z "
           style="fill:#000000;fill-opacity:1;fill-rule:evenodd;stroke:#000000;stroke-width:1.25;stroke-opacity:1" />
        <path
           id="path1242"
           d="M 4.4598789,0.088665736 C -2.5564571,-4.3783320 5.2248769,-3.9061806 -0.84829578,-8.7197331"
           style="fill:#000000;fill-opacity:1;fill-rule:evenodd;stroke:#000000;stroke-width:1pt;stroke-opacity:1" />
        <path
           id="path1244"
           d="M 4.9298719,0.057520736 C -1.3872731,1.7494689 1.8027579,5.4782079 -4.9448731,7.5462725"
           style="fill:#000000;fill-opacity:1;fill-rule:evenodd;stroke:#000000;stroke-width:1pt;stroke-opacity:1" />
        <rect
           id="rect1246"
           transform="matrix(0.527536,-0.849533,0.887668,0.460484,0,0)"
           y="-1.7408575"
           x="-10.391706"
           height="2.7608147"
           width="2.6366582"
           style="fill-rule:evenodd;stroke-width:1pt;stroke:#000000;stroke-opacity:1;fill:#000000;fill-opacity:1" />
        <rect
           id="rect1248"
           transform="matrix(0.671205,-0.741272,0.790802,0.612072,0,0)"
           y="-7.9629307"
           x="4.9587269"
           height="2.8614161"
           width="2.7327356"
           style="fill-rule:evenodd;stroke-width:1pt;stroke:#000000;stroke-opacity:1;fill:#000000;fill-opacity:1" />
        <path
           id="path1250"
           transform="matrix(0,-1.109517,1.109517,0,25.96648,19.71619)"
           d="M 16.779951 -28.685045 A 0.60731727 0.60731727 0 1 0 15.565317,-28.685045 A 0.60731727 0.60731727 0 1 0 16.779951 -28.685045 z"
           style="fill:#000000;fill-opacity:1;fill-rule:evenodd;stroke:#000000;stroke-width:1pt;stroke-opacity:1" />
        <path
           id="path1252"
           transform="matrix(0,-1.109517,1.109517,0,26.82450,16.99126)"
           d="M 16.779951 -28.685045 A 0.60731727 0.60731727 0 1 0 15.565317,-28.685045 A 0.60731727 0.60731727 0 1 0 16.779951 -28.685045 z"
           style="fill:#000000;fill-opacity:1;fill-rule:evenodd;stroke:#000000;stroke-width:1pt;stroke-opacity:1" />
      </g>
    </marker>
    <marker
       inkscape:stockid="Legs"
       orient="auto"
       refY="0.0"
       refX="0.0"
       id="Legs"
       style="overflow:visible"
       inkscape:isstock="true">
      <g
         id="g1047"
         transform="scale(-0.7)"
         style="stroke:#000000;stroke-opacity:1;fill:#000000;fill-opacity:1">
        <g
           id="g1041"
           transform="matrix(0,-1.000000,-1.000000,0,20.70862,21.31391)"
           style="stroke:#000000;stroke-opacity:1;fill:#000000;fill-opacity:1">
          <path
             id="path1037"
             d="M 21.221250,20.675360 C 14.311099,25.396517 18.766725,27.282204 15.380179,34.118595"
             style="fill:#000000;fill-opacity:1;fill-rule:evenodd;stroke:#000000;stroke-width:1pt;stroke-opacity:1" />
          <path
             id="path1039"
             d="M 21.398110,20.548120 C 20.037601,28.895644 24.934182,29.318060 25.903151,34.373078"
             style="fill:#000000;fill-opacity:1;fill-rule:evenodd;stroke:#000000;stroke-width:1pt;stroke-opacity:1" />
        </g>
        <path
           id="path1043"
           d="M -14.090070,-6.7318716 L -15.012238,-2.6884886 L -11.049487,-3.9115586 L -14.090070,-6.7318716 z "
           style="fill:#000000;fill-rule:evenodd;stroke-width:1pt;stroke:#000000;stroke-opacity:1;fill-opacity:1" />
        <path
           id="path1045"
           d="M -15.215679,4.5567534 L -13.341552,8.2563664 L -11.074678,4.7835114 L -15.215679,4.5567534 z "
           style="fill:#000000;fill-rule:evenodd;stroke-width:1pt;stroke:#000000;stroke-opacity:1;fill-opacity:1" />
      </g>
    </marker>
    <marker
       inkscape:stockid="RazorWire"
       id="RazorWire"
       refX="0"
       refY="0"
       orient="auto"
       style="overflow:visible"
       inkscape:isstock="true">
      <path
         id="path1070"
         transform="scale(0.8,0.8)"
         style="fill:#000000;fill-opacity:1;fill-rule:evenodd;stroke:#000000;stroke-width:0.1pt;stroke-opacity:1"
         d="M 0.022727273,-0.74009011 L 0.022727273,0.69740989 L -7.7585227,3.0099099 L 10.678977,3.0099099 L 3.4914773,0.69740989 L 3.4914773,-0.74009011 L 10.741477,-2.8963401 L -7.7272727,-2.8963401 L 0.022727273,-0.74009011 z " />
    </marker>
    <marker
       inkscape:stockid="Torso"
       orient="auto"
       refY="0.0"
       refX="0.0"
       id="Torso"
       style="overflow:visible"
       inkscape:isstock="true">
      <g
         id="g1064"
         transform="scale(0.7)"
         style="stroke:#000000;stroke-opacity:1;fill:#000000;fill-opacity:1">
        <path
           id="path1050"
           d="M -4.7792281,-3.2395420 C -2.4288541,-2.8736027 0.52103922,-1.3019943 0.25792722,0.38794346 C -0.0051877922,2.0778819 -2.2126741,2.6176539 -4.5630471,2.2517169 C -6.9134221,1.8857769 -8.5210350,0.75201414 -8.2579220,-0.93792336 C -7.9948090,-2.6278615 -7.1296041,-3.6054813 -4.7792281,-3.2395420 z "
           style="fill:#000000;fill-opacity:1;fill-rule:evenodd;stroke:#000000;stroke-width:1.25;stroke-opacity:1" />
        <path
           id="path1052"
           d="M 4.4598789,0.088665736 C -2.5564571,-4.3783320 5.2248769,-3.9061806 -0.84829578,-8.7197331"
           style="fill:#000000;fill-opacity:1;fill-rule:evenodd;stroke:#000000;stroke-width:1pt;stroke-opacity:1" />
        <path
           id="path1054"
           d="M 4.9298719,0.057520736 C -1.3872731,1.7494689 1.8027579,5.4782079 -4.9448731,7.5462725"
           style="fill:#000000;fill-opacity:1;fill-rule:evenodd;stroke:#000000;stroke-width:1pt;stroke-opacity:1" />
        <rect
           id="rect1056"
           transform="matrix(0.527536,-0.849533,0.887668,0.460484,0,0)"
           y="-1.7408575"
           x="-10.391706"
           height="2.7608147"
           width="2.6366582"
           style="fill-rule:evenodd;stroke-width:1pt;stroke:#000000;stroke-opacity:1;fill:#000000;fill-opacity:1" />
        <rect
           id="rect1058"
           transform="matrix(0.671205,-0.741272,0.790802,0.612072,0,0)"
           y="-7.9629307"
           x="4.9587269"
           height="2.8614161"
           width="2.7327356"
           style="fill-rule:evenodd;stroke-width:1pt;stroke:#000000;stroke-opacity:1;fill:#000000;fill-opacity:1" />
        <path
           id="path1060"
           transform="matrix(0,-1.109517,1.109517,0,25.96648,19.71619)"
           d="M 16.779951 -28.685045 A 0.60731727 0.60731727 0 1 0 15.565317,-28.685045 A 0.60731727 0.60731727 0 1 0 16.779951 -28.685045 z"
           style="fill:#000000;fill-opacity:1;fill-rule:evenodd;stroke:#000000;stroke-width:1pt;stroke-opacity:1" />
        <path
           id="path1062"
           transform="matrix(0,-1.109517,1.109517,0,26.82450,16.99126)"
           d="M 16.779951 -28.685045 A 0.60731727 0.60731727 0 1 0 15.565317,-28.685045 A 0.60731727 0.60731727 0 1 0 16.779951 -28.685045 z"
           style="fill:#000000;fill-opacity:1;fill-rule:evenodd;stroke:#000000;stroke-width:1pt;stroke-opacity:1" />
      </g>
    </marker>
    <marker
       inkscape:stockid="Scissors"
       orient="auto"
       refY="0.0"
       refX="0.0"
       id="Scissors"
       style="overflow:visible"
       inkscape:isstock="true">
      <path
         id="schere"
         d="M 9.0898857,-3.6061018 C 8.1198849,-4.7769976 6.3697607,-4.7358294 5.0623558,-4.2327734 L -3.1500488,-1.1548705 C -5.5383421,-2.4615840 -7.8983361,-2.0874077 -7.8983361,-2.7236578 C -7.8983361,-3.2209742 -7.4416699,-3.1119800 -7.5100293,-4.4068519 C -7.5756648,-5.6501286 -8.8736064,-6.5699315 -10.100428,-6.4884954 C -11.327699,-6.4958500 -12.599867,-5.5553341 -12.610769,-4.2584343 C -12.702194,-2.9520479 -11.603560,-1.7387447 -10.304005,-1.6532027 C -8.7816644,-1.4265411 -6.0857470,-2.3487593 -4.8210600,-0.082342643 C -5.7633447,1.6559151 -7.4350844,1.6607341 -8.9465707,1.5737277 C -10.201445,1.5014928 -11.708664,1.8611256 -12.307219,3.0945882 C -12.885586,4.2766744 -12.318421,5.9591904 -10.990470,6.3210002 C -9.6502788,6.8128279 -7.8098011,6.1912892 -7.4910978,4.6502760 C -7.2454393,3.4624530 -8.0864637,2.9043186 -7.7636052,2.4731223 C -7.5199917,2.1477623 -5.9728246,2.3362771 -3.2164999,1.0982979 L 5.6763468,4.2330688 C 6.8000164,4.5467672 8.1730685,4.5362646 9.1684433,3.4313614 L -0.051640930,-0.053722219 L 9.0898857,-3.6061018 z M -9.2179159,-5.5066058 C -7.9233569,-4.7838060 -8.0290767,-2.8230356 -9.3743431,-2.4433169 C -10.590861,-2.0196559 -12.145370,-3.2022863 -11.757521,-4.5207817 C -11.530373,-5.6026336 -10.104134,-6.0014137 -9.2179159,-5.5066058 z M -9.1616516,2.5107591 C -7.8108215,3.0096239 -8.0402087,5.2951947 -9.4138723,5.6023681 C -10.324932,5.9187072 -11.627422,5.4635705 -11.719569,4.3902287 C -11.897178,3.0851737 -10.363484,1.9060805 -9.1616516,2.5107591 z "
         style="fill:#000000;stroke:#000000;stroke-opacity:1;fill-opacity:1" />
    </marker>
    <marker
       inkscape:stockid="DiamondL"
       orient="auto"
       refY="0.0"
       refX="0.0"
       id="marker5462"
       style="overflow:visible"
       inkscape:isstock="true">
      <path
         id="path5460"
         d="M 0,-7.0710768 L -7.0710894,0 L 0,7.0710589 L 7.0710462,0 L 0,-7.0710768 z "
         style="fill-rule:evenodd;stroke:#000000;stroke-width:1pt;stroke-opacity:1;fill:#000000;fill-opacity:1"
         transform="scale(0.8)" />
    </marker>
    <marker
       inkscape:isstock="true"
       style="overflow:visible;"
       id="marker5026"
       refX="0.0"
       refY="0.0"
       orient="auto"
       inkscape:stockid="Arrow1Lend">
      <path
         transform="scale(0.8) rotate(180) translate(12.5,0)"
         style="fill-rule:evenodd;stroke:#000000;stroke-width:1pt;stroke-opacity:1;fill:#000000;fill-opacity:1"
         d="M 0.0,0.0 L 5.0,-5.0 L -12.5,0.0 L 5.0,5.0 L 0.0,0.0 z "
         id="path5024" />
    </marker>
    <marker
       inkscape:stockid="DiamondM"
       orient="auto"
       refY="0.0"
       refX="0.0"
       id="DiamondM"
       style="overflow:visible"
       inkscape:isstock="true">
      <path
         id="path4606"
         d="M 0,-7.0710768 L -7.0710894,0 L 0,7.0710589 L 7.0710462,0 L 0,-7.0710768 z "
         style="fill-rule:evenodd;stroke:#000000;stroke-width:1pt;stroke-opacity:1;fill:#000000;fill-opacity:1"
         transform="scale(0.4)" />
    </marker>
    <marker
       inkscape:stockid="DiamondL"
       orient="auto"
       refY="0.0"
       refX="0.0"
       id="DiamondL"
       style="overflow:visible"
       inkscape:isstock="true">
      <path
         id="path4603"
         d="M 0,-7.0710768 L -7.0710894,0 L 0,7.0710589 L 7.0710462,0 L 0,-7.0710768 z "
         style="fill-rule:evenodd;stroke:#000000;stroke-width:1pt;stroke-opacity:1;fill:#000000;fill-opacity:1"
         transform="scale(0.8)" />
    </marker>
    <marker
       inkscape:stockid="Arrow1Lstart"
       orient="auto"
       refY="0.0"
       refX="0.0"
       id="Arrow1Lstart"
       style="overflow:visible"
       inkscape:isstock="true">
      <path
         id="path4524"
         d="M 0.0,0.0 L 5.0,-5.0 L -12.5,0.0 L 5.0,5.0 L 0.0,0.0 z "
         style="fill-rule:evenodd;stroke:#000000;stroke-width:1pt;stroke-opacity:1;fill:#000000;fill-opacity:1"
         transform="scale(0.8) translate(12.5,0)" />
    </marker>
  </defs>
  <sodipodi:namedview
     id="base"
     pagecolor="#ffffff"
     bordercolor="#666666"
     borderopacity="1.0"
     inkscape:pageopacity="0.0"
     inkscape:pageshadow="2"
     inkscape:zoom="1.9678656"
     inkscape:cx="576.43284"
     inkscape:cy="756.60268"
     inkscape:document-units="mm"
     inkscape:current-layer="layer1"
     showgrid="false"
     inkscape:window-width="3000"
     inkscape:window-height="1875"
     inkscape:window-x="-13"
     inkscape:window-y="-13"
     inkscape:window-maximized="1" />
  <metadata
     id="metadata5">
    <rdf:RDF>
      <cc:Work
         rdf:about="">
        <dc:format>image/svg+xml</dc:format>
        <dc:type
           rdf:resource="http://purl.org/dc/dcmitype/StillImage" />
        <dc:title />
      </cc:Work>
    </rdf:RDF>
  </metadata>
  <g
     inkscape:label="Layer 1"
     inkscape:groupmode="layer"
     id="layer1">
    <path
       style="fill:none;stroke:#000000;stroke-width:0.26458332px;stroke-linecap:butt;stroke-linejoin:miter;stroke-opacity:1"
       d="M 29.576635,128.32812 H 166.6875"
       id="path4518"
       inkscape:connector-curvature="0" />
    <path
       style="fill:none;stroke:#000000;stroke-width:1;stroke-linecap:butt;stroke-linejoin:miter;stroke-miterlimit:4;stroke-dasharray:none;stroke-opacity:1;marker-start:url(#StopL);marker-end:url(#StopL)"
       d="M 150.34003,83.254461 V 173.68525"
       id="path4520"
       inkscape:connector-curvature="0" />
    <path
       style="fill:none;stroke:#000000;stroke-width:1;stroke-linecap:butt;stroke-linejoin:miter;stroke-miterlimit:4;stroke-dasharray:none;stroke-opacity:1;marker-start:url(#Arrow2Mstart);marker-end:url(#Arrow2Mend)"
       d="M 101.14347,98.734865 V 157.61544"
       id="path4870"
       inkscape:connector-curvature="0" />
    <path
       style="fill:none;stroke:#000000;stroke-width:0.265;stroke-linecap:butt;stroke-linejoin:miter;stroke-opacity:1;stroke-miterlimit:4;stroke-dasharray:none"
       d="m 46.113094,111.50818 h 55.184526 l 53.65189,41.634"
       id="path5070"
       inkscape:connector-curvature="0" />
    <path
       style="fill:none;stroke:#000000;stroke-width:0.26458332px;stroke-linecap:butt;stroke-linejoin:miter;stroke-opacity:1"
       d="M 46.113094,111.50818 177.611,151.59023"
       id="path1186"
       inkscape:connector-curvature="0" />
    <circle
       style="fill:#ff0000;fill-opacity:1;fill-rule:evenodd;stroke-width:0.14214318"
       id="path1188"
       cx="122.84704"
       cy="128.23761"
       r="0.84872788" />
    <circle
       style="fill:#0000f7;fill-opacity:1;fill-rule:evenodd;stroke-width:0.14214318"
       id="path1188-4"
       cx="101.15647"
       cy="128.33061"
       r="0.84872788" />
    <path
       inkscape:connector-curvature="0"
       id="path20218"
       d="M 161.92401,139.38136 H 101.13733 L 46.113094,111.50818"
       style="fill:none;stroke:#000000;stroke-width:0.26499999;stroke-linecap:butt;stroke-linejoin:miter;stroke-miterlimit:4;stroke-dasharray:none;stroke-opacity:1"
       sodipodi:nodetypes="ccc" />
    <path
       style="fill:none;stroke:#0000ff;stroke-width:1.00246596;stroke-linecap:butt;stroke-linejoin:miter;stroke-miterlimit:4;stroke-dasharray:none;stroke-opacity:1;marker-end:url(#SemiCircleIn)"
       d="m 46.17081,128.39943 c 0,-13.93387 0,-13.93387 0,-13.93387"
       id="path5446"
       inkscape:connector-curvature="0" />
    <path
       style="fill:none;stroke:#9696ff;stroke-width:2.5;stroke-linecap:butt;stroke-linejoin:miter;stroke-miterlimit:4;stroke-dasharray:none;stroke-opacity:1;marker-end:url(#marker9340)"
       d="m 150.12461,127.81452 c 0,13.93978 0,13.93978 0,13.93978"
       id="path9170"
       inkscape:connector-curvature="0" />
    <path
       inkscape:connector-curvature="0"
       id="path12994"
       d="m 150.12461,127.81452 c 0,15.34031 0,15.34031 0,15.34031"
       style="fill:none;stroke:#6464ff;stroke-width:2.01482081;stroke-linecap:butt;stroke-linejoin:miter;stroke-miterlimit:4;stroke-dasharray:none;stroke-opacity:1;marker-end:url(#marker13164)" />
    <path
       inkscape:connector-curvature="0"
       id="path1526"
       d="m 150.12461,127.81452 c 0,18.15585 0,18.15585 0,18.15585"
       style="fill:none;stroke:#3f3fff;stroke-width:1.144;stroke-linecap:butt;stroke-linejoin:miter;stroke-miterlimit:4;stroke-dasharray:none;stroke-opacity:1;marker-end:url(#marker1530);fill-opacity:1" />
    <circle
       r="0.84872788"
       cy="128.33269"
       cx="79.422958"
       id="circle20239"
       style="fill:#ff0000;fill-opacity:1;fill-rule:evenodd;stroke-width:0.14214318" />
    <path
       inkscape:connector-curvature="0"
       id="path1303"
       d="M 29.576635,16.673725 H 166.6875"
       style="fill:none;stroke:#000000;stroke-width:0.26458332px;stroke-linecap:butt;stroke-linejoin:miter;stroke-opacity:1" />
    <path
       inkscape:connector-curvature="0"
       id="path1305"
       d="M 150.34003,-27.870593 V 62.559776"
       style="fill:none;stroke:#000000;stroke-width:1;stroke-linecap:butt;stroke-linejoin:miter;stroke-miterlimit:4;stroke-dasharray:none;stroke-opacity:1;marker-start:url(#marker2709);marker-end:url(#marker2713)" />
    <path
       inkscape:connector-curvature="0"
       id="path1307"
       d="M 101.14347,-12.919359 V 45.96088"
       style="fill:none;stroke:#000000;stroke-width:1;stroke-linecap:butt;stroke-linejoin:miter;stroke-miterlimit:4;stroke-dasharray:none;stroke-opacity:1;marker-start:url(#Arrow2Mstart);marker-end:url(#Arrow2Mend)" />
    <circle
       r="0.84872788"
       cy="16.583366"
       cx="122.84704"
       id="circle1311"
       style="fill:#ff0000;fill-opacity:1;fill-rule:evenodd;stroke-width:0.14214318" />
    <circle
       r="0.84872788"
       cy="16.676399"
       cx="101.15647"
       id="circle1313"
       style="fill:#0000f7;fill-opacity:1;fill-rule:evenodd;stroke-width:0.14214318" />
    <path
       inkscape:connector-curvature="0"
       id="path1325"
       d="m 101.55495,11.675832 h 21.72392"
       style="fill:none;stroke:#002400;stroke-width:0.1;stroke-linecap:butt;stroke-linejoin:miter;stroke-miterlimit:4;stroke-dasharray:none;stroke-opacity:1;marker-start:url(#EmptyTriangleOutL);marker-end:url(#EmptyTriangleInL)" />
    <circle
       style="fill:#ff0000;fill-opacity:1;fill-rule:evenodd;stroke-width:0.14214318"
       id="circle1327"
       cx="79.422958"
       cy="16.67849"
       r="0.84872788" />
    <text
       xml:space="preserve"
       style="font-style:normal;font-weight:normal;font-size:10.58333302px;line-height:1.25;font-family:Ubuntu;letter-spacing:0px;word-spacing:0px;fill:#000000;fill-opacity:1;stroke:none;stroke-width:0.26458332;-inkscape-font-specification:Ubuntu;font-stretch:normal;font-variant:normal;"
       x="108.85729"
       y="6.2702088"
       id="text2675"><tspan
         sodipodi:role="line"
         id="tspan2673"
         x="108.85729"
         y="15.925704"
         style="stroke-width:0.26458332;-inkscape-font-specification:Ubuntu;font-family:Ubuntu;font-weight:normal;font-style:normal;font-stretch:normal;font-variant:normal;" /></text>
    <text
       xml:space="preserve"
       style="font-style:normal;font-weight:normal;font-size:10.58333302px;line-height:1.25;font-family:sans-serif;letter-spacing:0px;word-spacing:0px;fill:#000000;fill-opacity:1;stroke:none;stroke-width:0.26458332"
       x="109.61786"
       y="10.453372"
       id="text2679"><tspan
         sodipodi:role="line"
         id="tspan2677"
         x="109.61786"
         y="10.453372"
         style="stroke-width:0.26458332">f</tspan></text>
    <text
       xml:space="preserve"
       style="font-style:normal;font-weight:normal;font-size:10.58333302px;line-height:1.25;font-family:sans-serif;letter-spacing:0px;word-spacing:0px;fill:#000000;fill-opacity:1;stroke:none;stroke-width:0.26458332"
       x="91.744354"
       y="25.759945"
       id="text2683"><tspan
         sodipodi:role="line"
         id="tspan2681"
         x="91.744354"
         y="25.759945"
         style="stroke-width:0.26458332">O</tspan></text>
    <text
       xml:space="preserve"
       style="font-style:normal;font-weight:normal;font-size:10.58333302px;line-height:1.25;font-family:sans-serif;letter-spacing:0px;word-spacing:0px;fill:#000000;fill-opacity:1;stroke:none;stroke-width:0.26458332"
       x="124.46455"
       y="26.279737"
       id="text2683-1"><tspan
         sodipodi:role="line"
         id="tspan2681-6"
         x="124.46455"
         y="26.279737"
         style="stroke-width:0.26458332">F</tspan></text>
    <text
       xml:space="preserve"
       style="font-style:normal;font-weight:normal;font-size:10.58333302px;line-height:1.25;font-family:sans-serif;letter-spacing:0px;word-spacing:0px;fill:#000000;fill-opacity:1;stroke:none;stroke-width:0.26458332"
       x="89.747849"
       y="64.83448"
       id="text2705"><tspan
         sodipodi:role="line"
         id="tspan2703"
         x="89.747849"
         y="64.83448"
         style="stroke-width:0.26458332">Lens</tspan></text>
    <text
       id="text6449"
       y="65.024628"
       x="159.05525"
       style="font-style:normal;font-weight:normal;font-size:10.58333302px;line-height:1.25;font-family:sans-serif;letter-spacing:0px;word-spacing:0px;fill:#000000;fill-opacity:1;stroke:none;stroke-width:0.26458332"
       xml:space="preserve"><tspan
         style="stroke-width:0.26458332"
         y="65.024628"
         x="159.05525"
         id="tspan6447"
         sodipodi:role="line">Film</tspan></text>
  </g>
</svg>
